<svg width="1440" height="143" viewBox="0 0 1440 143" fill="none" xmlns="http://www.w3.org/2000/svg">
<path d="M497.293 72.5169C410.519 74.4837 366.453 2.62716 281.384 19.8398C216.523 32.9637 201.201 100.702 135.192 105.44C74.655 109.786 -11 52.763 -11 52.763V890H1622V52.763C1622 52.763 1559.15 35.8084 1517.84 33.0091C1432.56 27.2309 1387.78 79.3728 1302.59 72.5169C1218.05 65.7139 1182.65 -2.75361 1097.88 0.0858828C1028.18 2.42093 998.653 50.7671 929.442 59.3476C836.824 70.8301 786.883 13.7396 693.755 19.8398C614.485 25.0321 576.712 70.7168 497.293 72.5169Z" fill="#7357FF"/>
</svg>
