<svg width="1440" height="130" viewBox="0 0 1440 130" fill="none" xmlns="http://www.w3.org/2000/svg">
<path d="M327.293 72.5169C240.519 74.4837 196.453 2.62716 111.384 19.8398C46.5227 32.9637 31.2009 100.702 -34.8079 105.44C-95.345 109.786 -181 52.763 -181 52.763V890H1452V52.763C1452 52.763 1389.15 35.8084 1347.84 33.0091C1262.56 27.2309 1217.78 79.3728 1132.59 72.5169C1048.05 65.7139 1012.65 -2.75361 927.884 0.0858828C858.181 2.42093 828.653 50.7671 759.442 59.3476C666.824 70.8301 616.883 13.7396 523.755 19.8398C444.485 25.0321 406.712 70.7168 327.293 72.5169Z" fill="#8C76FF"/>
</svg>
